# xmcd CD database file
#
# Track frame offsets:
#	150
#	20170
#	41197
#	59229
#	81139
#	99682
#	124493
#	142278
#	164093
#	180838
#	200433
#
# Disc length: 2881 seconds
#
# Revision: 0
# Processed by: cddbd v1.5.2PL0 Copyright (c) Steve Scherf et al.
# Submitted via: CDex 1.70beta2
#
DISCID=ae0b3f0b
DTITLE=Susan Santos - Electric Love
DYEAR=2014
DGENRE=Blues
TTITLE0=It's All About You
TTITLE1=Electric Love
TTITLE2=Devils Waltz
TTITLE3=Inner City
TTITLE4=Shinny Car
TTITLE5=Kaleidoscope
TTITLE6=Off My Skull
TTITLE7=Somebody Like You
TTITLE8=Ice On Fire
TTITLE9=Everything
TTITLE10=Rockin Me Baby
EXTD=YEAR: 2014
EXTT0=
EXTT1=
EXTT2=
EXTT3=
EXTT4=
EXTT5=
EXTT6=
EXTT7=
EXTT8=
EXTT9=
EXTT10=
PLAYORDER=
